<mxfile host="Electron" agent="Mozilla/5.0 (Windows NT 10.0; Win64; x64) AppleWebKit/537.36 (KHTML, like Gecko) draw.io/25.0.1 Chrome/128.0.6613.186 Electron/32.2.6 Safari/537.36" version="25.0.1">
  <diagram id="C5RBs43oDa-KdzZeNtuy" name="Page-1">
    <mxGraphModel dx="3749" dy="2815" grid="1" gridSize="10" guides="1" tooltips="1" connect="1" arrows="1" fold="1" page="1" pageScale="1" pageWidth="827" pageHeight="1169" math="0" shadow="0">
      <root>
        <mxCell id="WIyWlLk6GJQsqaUBKTNV-0" />
        <mxCell id="WIyWlLk6GJQsqaUBKTNV-1" parent="WIyWlLk6GJQsqaUBKTNV-0" />
        <mxCell id="tXaySMaBJVbL5Y9LoDkF-0" value="&lt;div&gt;&amp;lt;&amp;lt;Singleton&amp;gt;&amp;gt;&lt;/div&gt;CityController" style="swimlane;fontStyle=1;align=center;verticalAlign=top;childLayout=stackLayout;horizontal=1;startSize=50;horizontalStack=0;resizeParent=1;resizeParentMax=0;resizeLast=0;collapsible=1;marginBottom=0;whiteSpace=wrap;html=1;" parent="WIyWlLk6GJQsqaUBKTNV-1" vertex="1">
          <mxGeometry x="20" width="310" height="208" as="geometry" />
        </mxCell>
        <mxCell id="tXaySMaBJVbL5Y9LoDkF-1" value="&lt;div&gt;- instance: CityController&lt;/div&gt;&lt;div&gt;&amp;nbsp;- strategy: AnalyticsStrategy&lt;/div&gt;" style="text;strokeColor=none;fillColor=none;align=left;verticalAlign=top;spacingLeft=4;spacingRight=4;overflow=hidden;rotatable=0;points=[[0,0.5],[1,0.5]];portConstraint=eastwest;whiteSpace=wrap;html=1;" parent="tXaySMaBJVbL5Y9LoDkF-0" vertex="1">
          <mxGeometry y="50" width="310" height="40" as="geometry" />
        </mxCell>
        <mxCell id="tXaySMaBJVbL5Y9LoDkF-2" value="" style="line;strokeWidth=1;fillColor=none;align=left;verticalAlign=middle;spacingTop=-1;spacingLeft=3;spacingRight=3;rotatable=0;labelPosition=right;points=[];portConstraint=eastwest;strokeColor=inherit;" parent="tXaySMaBJVbL5Y9LoDkF-0" vertex="1">
          <mxGeometry y="90" width="310" height="8" as="geometry" />
        </mxCell>
        <mxCell id="tXaySMaBJVbL5Y9LoDkF-3" value="&lt;div&gt;&amp;nbsp;+ getInstance(): CityController&lt;/div&gt;&lt;div&gt;&amp;nbsp;+ controlStreetLights(action: String)&lt;/div&gt;&lt;div&gt;&amp;nbsp;+ accessHybridCloud(service: CloudService)&lt;/div&gt;&lt;div&gt;&amp;nbsp;+ setAnalyticsStrategy(strategy: AnalyticsStrategy)&lt;/div&gt;&lt;div&gt;&amp;nbsp;+ performAnalytics()&lt;/div&gt;&lt;div&gt;&lt;/div&gt;" style="text;strokeColor=none;fillColor=none;align=left;verticalAlign=top;spacingLeft=4;spacingRight=4;overflow=hidden;rotatable=0;points=[[0,0.5],[1,0.5]];portConstraint=eastwest;whiteSpace=wrap;html=1;" parent="tXaySMaBJVbL5Y9LoDkF-0" vertex="1">
          <mxGeometry y="98" width="310" height="110" as="geometry" />
        </mxCell>
        <mxCell id="tXaySMaBJVbL5Y9LoDkF-88" style="edgeStyle=orthogonalEdgeStyle;rounded=0;orthogonalLoop=1;jettySize=auto;html=1;exitX=1;exitY=0.5;exitDx=0;exitDy=0;entryX=1.002;entryY=0.098;entryDx=0;entryDy=0;entryPerimeter=0;" parent="tXaySMaBJVbL5Y9LoDkF-0" source="tXaySMaBJVbL5Y9LoDkF-3" target="tXaySMaBJVbL5Y9LoDkF-0" edge="1">
          <mxGeometry relative="1" as="geometry">
            <mxPoint x="314" y="70" as="targetPoint" />
            <Array as="points">
              <mxPoint x="310" y="180" />
              <mxPoint x="380" y="180" />
              <mxPoint x="380" y="20" />
            </Array>
            <mxPoint x="394" y="199" as="sourcePoint" />
          </mxGeometry>
        </mxCell>
        <mxCell id="tXaySMaBJVbL5Y9LoDkF-36" value="&amp;nbsp;PaymentSystem" style="swimlane;fontStyle=0;childLayout=stackLayout;horizontal=1;startSize=26;fillColor=none;horizontalStack=0;resizeParent=1;resizeParentMax=0;resizeLast=0;collapsible=1;marginBottom=0;whiteSpace=wrap;html=1;" parent="WIyWlLk6GJQsqaUBKTNV-1" vertex="1">
          <mxGeometry x="-220" y="900" width="220" height="80" as="geometry" />
        </mxCell>
        <mxCell id="tXaySMaBJVbL5Y9LoDkF-37" value="+processPayment(amount: Double)" style="text;strokeColor=none;fillColor=none;align=left;verticalAlign=top;spacingLeft=4;spacingRight=4;overflow=hidden;rotatable=0;points=[[0,0.5],[1,0.5]];portConstraint=eastwest;whiteSpace=wrap;html=1;" parent="tXaySMaBJVbL5Y9LoDkF-36" vertex="1">
          <mxGeometry y="26" width="220" height="54" as="geometry" />
        </mxCell>
        <mxCell id="tXaySMaBJVbL5Y9LoDkF-41" value="CryptoPayment&amp;nbsp;" style="swimlane;fontStyle=0;childLayout=stackLayout;horizontal=1;startSize=26;fillColor=none;horizontalStack=0;resizeParent=1;resizeParentMax=0;resizeLast=0;collapsible=1;marginBottom=0;whiteSpace=wrap;html=1;" parent="WIyWlLk6GJQsqaUBKTNV-1" vertex="1">
          <mxGeometry x="30" y="900" width="250" height="80" as="geometry" />
        </mxCell>
        <mxCell id="tXaySMaBJVbL5Y9LoDkF-42" value="+makeCryptoPayment(amount: Double)" style="text;strokeColor=none;fillColor=none;align=left;verticalAlign=top;spacingLeft=4;spacingRight=4;overflow=hidden;rotatable=0;points=[[0,0.5],[1,0.5]];portConstraint=eastwest;whiteSpace=wrap;html=1;" parent="tXaySMaBJVbL5Y9LoDkF-41" vertex="1">
          <mxGeometry y="26" width="250" height="54" as="geometry" />
        </mxCell>
        <mxCell id="tXaySMaBJVbL5Y9LoDkF-43" value="&amp;nbsp;DailyRoutine&amp;nbsp;&amp;nbsp;" style="swimlane;fontStyle=0;childLayout=stackLayout;horizontal=1;startSize=26;fillColor=none;horizontalStack=0;resizeParent=1;resizeParentMax=0;resizeLast=0;collapsible=1;marginBottom=0;whiteSpace=wrap;html=1;" parent="WIyWlLk6GJQsqaUBKTNV-1" vertex="1">
          <mxGeometry x="950" y="280" width="220" height="108" as="geometry" />
        </mxCell>
        <mxCell id="tXaySMaBJVbL5Y9LoDkF-44" value="+ executeRoutine()&amp;nbsp;" style="text;strokeColor=none;fillColor=none;align=left;verticalAlign=top;spacingLeft=4;spacingRight=4;overflow=hidden;rotatable=0;points=[[0,0.5],[1,0.5]];portConstraint=eastwest;whiteSpace=wrap;html=1;" parent="tXaySMaBJVbL5Y9LoDkF-43" vertex="1">
          <mxGeometry y="26" width="220" height="24" as="geometry" />
        </mxCell>
        <mxCell id="tXaySMaBJVbL5Y9LoDkF-45" value="&lt;div&gt;+ turnOnLights()&amp;nbsp;&lt;br&gt;&lt;/div&gt;&lt;div&gt;+ checkPublicSafety()&lt;br&gt;&lt;/div&gt;&lt;div&gt;&amp;nbsp;+ manageUtilities()&lt;br&gt;&lt;/div&gt;" style="text;strokeColor=none;fillColor=none;align=left;verticalAlign=top;spacingLeft=4;spacingRight=4;overflow=hidden;rotatable=0;points=[[0,0.5],[1,0.5]];portConstraint=eastwest;whiteSpace=wrap;html=1;" parent="tXaySMaBJVbL5Y9LoDkF-43" vertex="1">
          <mxGeometry y="50" width="220" height="58" as="geometry" />
        </mxCell>
        <mxCell id="tXaySMaBJVbL5Y9LoDkF-46" value="CityRoutine&amp;nbsp;&amp;nbsp;" style="swimlane;fontStyle=0;childLayout=stackLayout;horizontal=1;startSize=26;fillColor=none;horizontalStack=0;resizeParent=1;resizeParentMax=0;resizeLast=0;collapsible=1;marginBottom=0;whiteSpace=wrap;html=1;" parent="WIyWlLk6GJQsqaUBKTNV-1" vertex="1">
          <mxGeometry x="960" y="478" width="220" height="108" as="geometry" />
        </mxCell>
        <mxCell id="tXaySMaBJVbL5Y9LoDkF-47" value="&amp;nbsp;+ turnOnLights()" style="text;strokeColor=none;fillColor=none;align=left;verticalAlign=top;spacingLeft=4;spacingRight=4;overflow=hidden;rotatable=0;points=[[0,0.5],[1,0.5]];portConstraint=eastwest;whiteSpace=wrap;html=1;" parent="tXaySMaBJVbL5Y9LoDkF-46" vertex="1">
          <mxGeometry y="26" width="220" height="24" as="geometry" />
        </mxCell>
        <mxCell id="tXaySMaBJVbL5Y9LoDkF-48" value="&lt;div&gt;+ checkPublicSafety()&amp;nbsp;&lt;br&gt;&lt;/div&gt;&lt;div&gt;+ manageUtilities()&lt;br&gt;&lt;/div&gt;" style="text;strokeColor=none;fillColor=none;align=left;verticalAlign=top;spacingLeft=4;spacingRight=4;overflow=hidden;rotatable=0;points=[[0,0.5],[1,0.5]];portConstraint=eastwest;whiteSpace=wrap;html=1;" parent="tXaySMaBJVbL5Y9LoDkF-46" vertex="1">
          <mxGeometry y="50" width="220" height="58" as="geometry" />
        </mxCell>
        <mxCell id="tXaySMaBJVbL5Y9LoDkF-49" value="&lt;span style=&quot;font-weight: 400;&quot;&gt;&amp;nbsp;TurnOnStreetLightsCommand&amp;nbsp;&lt;/span&gt;" style="swimlane;fontStyle=1;align=center;verticalAlign=top;childLayout=stackLayout;horizontal=1;startSize=26;horizontalStack=0;resizeParent=1;resizeParentMax=0;resizeLast=0;collapsible=1;marginBottom=0;whiteSpace=wrap;html=1;" parent="WIyWlLk6GJQsqaUBKTNV-1" vertex="1">
          <mxGeometry x="-690" y="638" width="190" height="90" as="geometry" />
        </mxCell>
        <mxCell id="tXaySMaBJVbL5Y9LoDkF-50" value="- cityController: CityController" style="text;strokeColor=none;fillColor=none;align=left;verticalAlign=top;spacingLeft=4;spacingRight=4;overflow=hidden;rotatable=0;points=[[0,0.5],[1,0.5]];portConstraint=eastwest;whiteSpace=wrap;html=1;" parent="tXaySMaBJVbL5Y9LoDkF-49" vertex="1">
          <mxGeometry y="26" width="190" height="26" as="geometry" />
        </mxCell>
        <mxCell id="tXaySMaBJVbL5Y9LoDkF-51" value="" style="line;strokeWidth=1;fillColor=none;align=left;verticalAlign=middle;spacingTop=-1;spacingLeft=3;spacingRight=3;rotatable=0;labelPosition=right;points=[];portConstraint=eastwest;strokeColor=inherit;" parent="tXaySMaBJVbL5Y9LoDkF-49" vertex="1">
          <mxGeometry y="52" width="190" height="8" as="geometry" />
        </mxCell>
        <mxCell id="tXaySMaBJVbL5Y9LoDkF-52" value="+ execute()&amp;nbsp;" style="text;strokeColor=none;fillColor=none;align=left;verticalAlign=top;spacingLeft=4;spacingRight=4;overflow=hidden;rotatable=0;points=[[0,0.5],[1,0.5]];portConstraint=eastwest;whiteSpace=wrap;html=1;" parent="tXaySMaBJVbL5Y9LoDkF-49" vertex="1">
          <mxGeometry y="60" width="190" height="30" as="geometry" />
        </mxCell>
        <mxCell id="tXaySMaBJVbL5Y9LoDkF-53" value="&lt;span style=&quot;font-weight: 400;&quot;&gt;TurnOffStreetLightsCommand&lt;/span&gt;" style="swimlane;fontStyle=1;align=center;verticalAlign=top;childLayout=stackLayout;horizontal=1;startSize=26;horizontalStack=0;resizeParent=1;resizeParentMax=0;resizeLast=0;collapsible=1;marginBottom=0;whiteSpace=wrap;html=1;" parent="WIyWlLk6GJQsqaUBKTNV-1" vertex="1">
          <mxGeometry x="-470" y="638" width="190" height="90" as="geometry" />
        </mxCell>
        <mxCell id="tXaySMaBJVbL5Y9LoDkF-54" value="- cityController: CityController" style="text;strokeColor=none;fillColor=none;align=left;verticalAlign=top;spacingLeft=4;spacingRight=4;overflow=hidden;rotatable=0;points=[[0,0.5],[1,0.5]];portConstraint=eastwest;whiteSpace=wrap;html=1;" parent="tXaySMaBJVbL5Y9LoDkF-53" vertex="1">
          <mxGeometry y="26" width="190" height="26" as="geometry" />
        </mxCell>
        <mxCell id="tXaySMaBJVbL5Y9LoDkF-55" value="" style="line;strokeWidth=1;fillColor=none;align=left;verticalAlign=middle;spacingTop=-1;spacingLeft=3;spacingRight=3;rotatable=0;labelPosition=right;points=[];portConstraint=eastwest;strokeColor=inherit;" parent="tXaySMaBJVbL5Y9LoDkF-53" vertex="1">
          <mxGeometry y="52" width="190" height="8" as="geometry" />
        </mxCell>
        <mxCell id="tXaySMaBJVbL5Y9LoDkF-56" value="+ execute()&amp;nbsp;" style="text;strokeColor=none;fillColor=none;align=left;verticalAlign=top;spacingLeft=4;spacingRight=4;overflow=hidden;rotatable=0;points=[[0,0.5],[1,0.5]];portConstraint=eastwest;whiteSpace=wrap;html=1;" parent="tXaySMaBJVbL5Y9LoDkF-53" vertex="1">
          <mxGeometry y="60" width="190" height="30" as="geometry" />
        </mxCell>
        <mxCell id="tXaySMaBJVbL5Y9LoDkF-57" value="&lt;span style=&quot;font-weight: 400;&quot;&gt;RemoteControl&amp;nbsp;&lt;/span&gt;" style="swimlane;fontStyle=1;align=center;verticalAlign=top;childLayout=stackLayout;horizontal=1;startSize=26;horizontalStack=0;resizeParent=1;resizeParentMax=0;resizeLast=0;collapsible=1;marginBottom=0;whiteSpace=wrap;html=1;" parent="WIyWlLk6GJQsqaUBKTNV-1" vertex="1">
          <mxGeometry x="-590" y="248" width="240" height="120" as="geometry" />
        </mxCell>
        <mxCell id="tXaySMaBJVbL5Y9LoDkF-58" value="- command: Command&amp;nbsp;" style="text;strokeColor=none;fillColor=none;align=left;verticalAlign=top;spacingLeft=4;spacingRight=4;overflow=hidden;rotatable=0;points=[[0,0.5],[1,0.5]];portConstraint=eastwest;whiteSpace=wrap;html=1;" parent="tXaySMaBJVbL5Y9LoDkF-57" vertex="1">
          <mxGeometry y="26" width="240" height="26" as="geometry" />
        </mxCell>
        <mxCell id="tXaySMaBJVbL5Y9LoDkF-59" value="" style="line;strokeWidth=1;fillColor=none;align=left;verticalAlign=middle;spacingTop=-1;spacingLeft=3;spacingRight=3;rotatable=0;labelPosition=right;points=[];portConstraint=eastwest;strokeColor=inherit;" parent="tXaySMaBJVbL5Y9LoDkF-57" vertex="1">
          <mxGeometry y="52" width="240" height="8" as="geometry" />
        </mxCell>
        <mxCell id="tXaySMaBJVbL5Y9LoDkF-60" value="+ setCommand(command: Command)&lt;div&gt;+ pressButton()&lt;/div&gt;" style="text;strokeColor=none;fillColor=none;align=left;verticalAlign=top;spacingLeft=4;spacingRight=4;overflow=hidden;rotatable=0;points=[[0,0.5],[1,0.5]];portConstraint=eastwest;whiteSpace=wrap;html=1;" parent="tXaySMaBJVbL5Y9LoDkF-57" vertex="1">
          <mxGeometry y="60" width="240" height="60" as="geometry" />
        </mxCell>
        <mxCell id="tXaySMaBJVbL5Y9LoDkF-61" value="&lt;span style=&quot;font-weight: 400;&quot;&gt;Command&amp;nbsp;&lt;/span&gt;" style="swimlane;fontStyle=1;align=center;verticalAlign=top;childLayout=stackLayout;horizontal=1;startSize=26;horizontalStack=0;resizeParent=1;resizeParentMax=0;resizeLast=0;collapsible=1;marginBottom=0;whiteSpace=wrap;html=1;" parent="WIyWlLk6GJQsqaUBKTNV-1" vertex="1">
          <mxGeometry x="-550" y="488" width="160" height="60" as="geometry" />
        </mxCell>
        <mxCell id="tXaySMaBJVbL5Y9LoDkF-63" value="" style="line;strokeWidth=1;fillColor=none;align=left;verticalAlign=middle;spacingTop=-1;spacingLeft=3;spacingRight=3;rotatable=0;labelPosition=right;points=[];portConstraint=eastwest;strokeColor=inherit;" parent="tXaySMaBJVbL5Y9LoDkF-61" vertex="1">
          <mxGeometry y="26" width="160" height="8" as="geometry" />
        </mxCell>
        <mxCell id="tXaySMaBJVbL5Y9LoDkF-64" value="+ execute()&amp;nbsp;" style="text;strokeColor=none;fillColor=none;align=left;verticalAlign=top;spacingLeft=4;spacingRight=4;overflow=hidden;rotatable=0;points=[[0,0.5],[1,0.5]];portConstraint=eastwest;whiteSpace=wrap;html=1;" parent="tXaySMaBJVbL5Y9LoDkF-61" vertex="1">
          <mxGeometry y="34" width="160" height="26" as="geometry" />
        </mxCell>
        <mxCell id="tXaySMaBJVbL5Y9LoDkF-65" value="&lt;div&gt;&lt;span style=&quot;font-weight: 400;&quot;&gt;&amp;lt;&amp;lt;interface&amp;gt;&amp;gt;&lt;/span&gt;&lt;/div&gt;&lt;span style=&quot;font-weight: 400;&quot;&gt;Observer&amp;nbsp;&amp;nbsp;&lt;/span&gt;" style="swimlane;fontStyle=1;align=center;verticalAlign=top;childLayout=stackLayout;horizontal=1;startSize=40;horizontalStack=0;resizeParent=1;resizeParentMax=0;resizeLast=0;collapsible=1;marginBottom=0;whiteSpace=wrap;html=1;" parent="WIyWlLk6GJQsqaUBKTNV-1" vertex="1">
          <mxGeometry x="530" y="510" width="160" height="74" as="geometry" />
        </mxCell>
        <mxCell id="tXaySMaBJVbL5Y9LoDkF-66" value="" style="line;strokeWidth=1;fillColor=none;align=left;verticalAlign=middle;spacingTop=-1;spacingLeft=3;spacingRight=3;rotatable=0;labelPosition=right;points=[];portConstraint=eastwest;strokeColor=inherit;" parent="tXaySMaBJVbL5Y9LoDkF-65" vertex="1">
          <mxGeometry y="40" width="160" height="8" as="geometry" />
        </mxCell>
        <mxCell id="tXaySMaBJVbL5Y9LoDkF-67" value="+ update(message: String)" style="text;strokeColor=none;fillColor=none;align=left;verticalAlign=top;spacingLeft=4;spacingRight=4;overflow=hidden;rotatable=0;points=[[0,0.5],[1,0.5]];portConstraint=eastwest;whiteSpace=wrap;html=1;" parent="tXaySMaBJVbL5Y9LoDkF-65" vertex="1">
          <mxGeometry y="48" width="160" height="26" as="geometry" />
        </mxCell>
        <mxCell id="tXaySMaBJVbL5Y9LoDkF-68" value="&lt;span style=&quot;font-weight: 400;&quot;&gt;Resident&amp;nbsp;&lt;/span&gt;" style="swimlane;fontStyle=1;align=center;verticalAlign=top;childLayout=stackLayout;horizontal=1;startSize=26;horizontalStack=0;resizeParent=1;resizeParentMax=0;resizeLast=0;collapsible=1;marginBottom=0;whiteSpace=wrap;html=1;" parent="WIyWlLk6GJQsqaUBKTNV-1" vertex="1">
          <mxGeometry x="610" y="682" width="160" height="86" as="geometry" />
        </mxCell>
        <mxCell id="tXaySMaBJVbL5Y9LoDkF-69" value="- name: String&amp;nbsp;&lt;div&gt;&lt;br&gt;&lt;/div&gt;" style="text;strokeColor=none;fillColor=none;align=left;verticalAlign=top;spacingLeft=4;spacingRight=4;overflow=hidden;rotatable=0;points=[[0,0.5],[1,0.5]];portConstraint=eastwest;whiteSpace=wrap;html=1;" parent="tXaySMaBJVbL5Y9LoDkF-68" vertex="1">
          <mxGeometry y="26" width="160" height="26" as="geometry" />
        </mxCell>
        <mxCell id="tXaySMaBJVbL5Y9LoDkF-70" value="" style="line;strokeWidth=1;fillColor=none;align=left;verticalAlign=middle;spacingTop=-1;spacingLeft=3;spacingRight=3;rotatable=0;labelPosition=right;points=[];portConstraint=eastwest;strokeColor=inherit;" parent="tXaySMaBJVbL5Y9LoDkF-68" vertex="1">
          <mxGeometry y="52" width="160" height="8" as="geometry" />
        </mxCell>
        <mxCell id="tXaySMaBJVbL5Y9LoDkF-71" value="+ update(message: String)" style="text;strokeColor=none;fillColor=none;align=left;verticalAlign=top;spacingLeft=4;spacingRight=4;overflow=hidden;rotatable=0;points=[[0,0.5],[1,0.5]];portConstraint=eastwest;whiteSpace=wrap;html=1;" parent="tXaySMaBJVbL5Y9LoDkF-68" vertex="1">
          <mxGeometry y="60" width="160" height="26" as="geometry" />
        </mxCell>
        <mxCell id="tXaySMaBJVbL5Y9LoDkF-72" value="&lt;span style=&quot;font-weight: 400;&quot;&gt;Authority&amp;nbsp;&amp;nbsp;&lt;/span&gt;" style="swimlane;fontStyle=1;align=center;verticalAlign=top;childLayout=stackLayout;horizontal=1;startSize=26;horizontalStack=0;resizeParent=1;resizeParentMax=0;resizeLast=0;collapsible=1;marginBottom=0;whiteSpace=wrap;html=1;" parent="WIyWlLk6GJQsqaUBKTNV-1" vertex="1">
          <mxGeometry x="430" y="682" width="160" height="86" as="geometry" />
        </mxCell>
        <mxCell id="tXaySMaBJVbL5Y9LoDkF-73" value="&lt;div&gt;&lt;div&gt;- department: String&lt;br&gt;&lt;/div&gt;&lt;/div&gt;&lt;div&gt;&lt;br&gt;&lt;/div&gt;" style="text;strokeColor=none;fillColor=none;align=left;verticalAlign=top;spacingLeft=4;spacingRight=4;overflow=hidden;rotatable=0;points=[[0,0.5],[1,0.5]];portConstraint=eastwest;whiteSpace=wrap;html=1;" parent="tXaySMaBJVbL5Y9LoDkF-72" vertex="1">
          <mxGeometry y="26" width="160" height="26" as="geometry" />
        </mxCell>
        <mxCell id="tXaySMaBJVbL5Y9LoDkF-74" value="" style="line;strokeWidth=1;fillColor=none;align=left;verticalAlign=middle;spacingTop=-1;spacingLeft=3;spacingRight=3;rotatable=0;labelPosition=right;points=[];portConstraint=eastwest;strokeColor=inherit;" parent="tXaySMaBJVbL5Y9LoDkF-72" vertex="1">
          <mxGeometry y="52" width="160" height="8" as="geometry" />
        </mxCell>
        <mxCell id="tXaySMaBJVbL5Y9LoDkF-75" value="+ update(message: String)" style="text;strokeColor=none;fillColor=none;align=left;verticalAlign=top;spacingLeft=4;spacingRight=4;overflow=hidden;rotatable=0;points=[[0,0.5],[1,0.5]];portConstraint=eastwest;whiteSpace=wrap;html=1;" parent="tXaySMaBJVbL5Y9LoDkF-72" vertex="1">
          <mxGeometry y="60" width="160" height="26" as="geometry" />
        </mxCell>
        <mxCell id="tXaySMaBJVbL5Y9LoDkF-76" value="&lt;span style=&quot;font-weight: 400;&quot;&gt;&amp;nbsp;CityMonitor&amp;nbsp;&lt;/span&gt;" style="swimlane;fontStyle=1;align=center;verticalAlign=top;childLayout=stackLayout;horizontal=1;startSize=26;horizontalStack=0;resizeParent=1;resizeParentMax=0;resizeLast=0;collapsible=1;marginBottom=0;whiteSpace=wrap;html=1;" parent="WIyWlLk6GJQsqaUBKTNV-1" vertex="1">
          <mxGeometry x="440" y="280" width="330" height="160" as="geometry" />
        </mxCell>
        <mxCell id="tXaySMaBJVbL5Y9LoDkF-77" value="- observers: List&amp;lt;Observer&amp;gt;" style="text;strokeColor=none;fillColor=none;align=left;verticalAlign=top;spacingLeft=4;spacingRight=4;overflow=hidden;rotatable=0;points=[[0,0.5],[1,0.5]];portConstraint=eastwest;whiteSpace=wrap;html=1;" parent="tXaySMaBJVbL5Y9LoDkF-76" vertex="1">
          <mxGeometry y="26" width="330" height="26" as="geometry" />
        </mxCell>
        <mxCell id="tXaySMaBJVbL5Y9LoDkF-78" value="" style="line;strokeWidth=1;fillColor=none;align=left;verticalAlign=middle;spacingTop=-1;spacingLeft=3;spacingRight=3;rotatable=0;labelPosition=right;points=[];portConstraint=eastwest;strokeColor=inherit;" parent="tXaySMaBJVbL5Y9LoDkF-76" vertex="1">
          <mxGeometry y="52" width="330" height="8" as="geometry" />
        </mxCell>
        <mxCell id="tXaySMaBJVbL5Y9LoDkF-79" value="&lt;div&gt;&lt;span style=&quot;background-color: initial;&quot;&gt;+ addObserver(observer: Observer)&lt;/span&gt;&lt;/div&gt;&lt;div&gt;&lt;span style=&quot;background-color: initial;&quot;&gt;+&amp;nbsp;&lt;/span&gt;&lt;span style=&quot;background-color: initial;&quot;&gt;removeObserver(observer: Observer)&lt;/span&gt;&lt;br&gt;&lt;/div&gt;&lt;div&gt;+ notifyObservers(message: String)&lt;/div&gt;" style="text;strokeColor=none;fillColor=none;align=left;verticalAlign=top;spacingLeft=4;spacingRight=4;overflow=hidden;rotatable=0;points=[[0,0.5],[1,0.5]];portConstraint=eastwest;whiteSpace=wrap;html=1;" parent="tXaySMaBJVbL5Y9LoDkF-76" vertex="1">
          <mxGeometry y="60" width="330" height="100" as="geometry" />
        </mxCell>
        <mxCell id="tXaySMaBJVbL5Y9LoDkF-80" value="&lt;span style=&quot;font-weight: 400;&quot;&gt;CryptoPaymentAdapter&lt;/span&gt;" style="swimlane;fontStyle=1;align=center;verticalAlign=top;childLayout=stackLayout;horizontal=1;startSize=26;horizontalStack=0;resizeParent=1;resizeParentMax=0;resizeLast=0;collapsible=1;marginBottom=0;whiteSpace=wrap;html=1;" parent="WIyWlLk6GJQsqaUBKTNV-1" vertex="1">
          <mxGeometry x="-100" y="690" width="230" height="120" as="geometry" />
        </mxCell>
        <mxCell id="tXaySMaBJVbL5Y9LoDkF-81" value="- cryptoPayment: CryptoPayment" style="text;strokeColor=none;fillColor=none;align=left;verticalAlign=top;spacingLeft=4;spacingRight=4;overflow=hidden;rotatable=0;points=[[0,0.5],[1,0.5]];portConstraint=eastwest;whiteSpace=wrap;html=1;" parent="tXaySMaBJVbL5Y9LoDkF-80" vertex="1">
          <mxGeometry y="26" width="230" height="26" as="geometry" />
        </mxCell>
        <mxCell id="tXaySMaBJVbL5Y9LoDkF-82" value="" style="line;strokeWidth=1;fillColor=none;align=left;verticalAlign=middle;spacingTop=-1;spacingLeft=3;spacingRight=3;rotatable=0;labelPosition=right;points=[];portConstraint=eastwest;strokeColor=inherit;" parent="tXaySMaBJVbL5Y9LoDkF-80" vertex="1">
          <mxGeometry y="52" width="230" height="8" as="geometry" />
        </mxCell>
        <mxCell id="tXaySMaBJVbL5Y9LoDkF-83" value="+ processPayment(amount)" style="text;strokeColor=none;fillColor=none;align=left;verticalAlign=top;spacingLeft=4;spacingRight=4;overflow=hidden;rotatable=0;points=[[0,0.5],[1,0.5]];portConstraint=eastwest;whiteSpace=wrap;html=1;" parent="tXaySMaBJVbL5Y9LoDkF-80" vertex="1">
          <mxGeometry y="60" width="230" height="60" as="geometry" />
        </mxCell>
        <mxCell id="tXaySMaBJVbL5Y9LoDkF-109" style="edgeStyle=orthogonalEdgeStyle;rounded=0;orthogonalLoop=1;jettySize=auto;html=1;entryX=0.5;entryY=0;entryDx=0;entryDy=0;exitX=0.532;exitY=1.001;exitDx=0;exitDy=0;exitPerimeter=0;" parent="WIyWlLk6GJQsqaUBKTNV-1" source="tXaySMaBJVbL5Y9LoDkF-79" target="tXaySMaBJVbL5Y9LoDkF-65" edge="1">
          <mxGeometry relative="1" as="geometry">
            <Array as="points">
              <mxPoint x="610" y="440" />
            </Array>
          </mxGeometry>
        </mxCell>
        <mxCell id="tXaySMaBJVbL5Y9LoDkF-119" value="1" style="edgeLabel;html=1;align=center;verticalAlign=middle;resizable=0;points=[];" parent="tXaySMaBJVbL5Y9LoDkF-109" vertex="1" connectable="0">
          <mxGeometry x="-0.8179" relative="1" as="geometry">
            <mxPoint x="10" y="9" as="offset" />
          </mxGeometry>
        </mxCell>
        <mxCell id="tXaySMaBJVbL5Y9LoDkF-120" value="*" style="text;html=1;align=center;verticalAlign=middle;resizable=0;points=[];autosize=1;strokeColor=none;fillColor=none;" parent="WIyWlLk6GJQsqaUBKTNV-1" vertex="1">
          <mxGeometry x="610" y="480" width="30" height="30" as="geometry" />
        </mxCell>
        <mxCell id="tXaySMaBJVbL5Y9LoDkF-121" value="" style="html=1;whiteSpace=wrap;fillColor=none;" parent="WIyWlLk6GJQsqaUBKTNV-1" vertex="1">
          <mxGeometry x="-720" y="458" width="480" height="310" as="geometry" />
        </mxCell>
        <mxCell id="tXaySMaBJVbL5Y9LoDkF-123" value="" style="endArrow=classic;html=1;rounded=0;exitX=0.5;exitY=1.008;exitDx=0;exitDy=0;exitPerimeter=0;entryX=0.523;entryY=0.006;entryDx=0;entryDy=0;entryPerimeter=0;" parent="WIyWlLk6GJQsqaUBKTNV-1" source="tXaySMaBJVbL5Y9LoDkF-60" target="tXaySMaBJVbL5Y9LoDkF-121" edge="1">
          <mxGeometry width="50" height="50" relative="1" as="geometry">
            <mxPoint x="-520" y="458" as="sourcePoint" />
            <mxPoint x="-470" y="408" as="targetPoint" />
          </mxGeometry>
        </mxCell>
        <mxCell id="tXaySMaBJVbL5Y9LoDkF-125" value="" style="endArrow=classic;html=1;rounded=0;exitX=0.414;exitY=1.037;exitDx=0;exitDy=0;exitPerimeter=0;entryX=0.5;entryY=0;entryDx=0;entryDy=0;" parent="WIyWlLk6GJQsqaUBKTNV-1" source="tXaySMaBJVbL5Y9LoDkF-83" target="tXaySMaBJVbL5Y9LoDkF-36" edge="1">
          <mxGeometry width="50" height="50" relative="1" as="geometry">
            <mxPoint x="780" y="1050" as="sourcePoint" />
            <mxPoint x="830" y="1000" as="targetPoint" />
          </mxGeometry>
        </mxCell>
        <mxCell id="tXaySMaBJVbL5Y9LoDkF-126" value="" style="endArrow=classic;html=1;rounded=0;exitX=0.436;exitY=1.024;exitDx=0;exitDy=0;exitPerimeter=0;entryX=0.5;entryY=0;entryDx=0;entryDy=0;" parent="WIyWlLk6GJQsqaUBKTNV-1" source="tXaySMaBJVbL5Y9LoDkF-83" target="tXaySMaBJVbL5Y9LoDkF-41" edge="1">
          <mxGeometry width="50" height="50" relative="1" as="geometry">
            <mxPoint x="225" y="912" as="sourcePoint" />
            <mxPoint x="120" y="1000" as="targetPoint" />
          </mxGeometry>
        </mxCell>
        <mxCell id="tXaySMaBJVbL5Y9LoDkF-128" value="Extends" style="endArrow=block;endSize=16;endFill=0;html=1;rounded=0;entryX=0.543;entryY=1.031;entryDx=0;entryDy=0;entryPerimeter=0;exitX=0.5;exitY=0;exitDx=0;exitDy=0;" parent="WIyWlLk6GJQsqaUBKTNV-1" source="tXaySMaBJVbL5Y9LoDkF-46" target="tXaySMaBJVbL5Y9LoDkF-45" edge="1">
          <mxGeometry width="160" relative="1" as="geometry">
            <mxPoint x="730" y="590" as="sourcePoint" />
            <mxPoint x="890" y="590" as="targetPoint" />
          </mxGeometry>
        </mxCell>
        <mxCell id="tXaySMaBJVbL5Y9LoDkF-129" value="1" style="text;html=1;align=center;verticalAlign=middle;resizable=0;points=[];autosize=1;strokeColor=none;fillColor=none;" parent="WIyWlLk6GJQsqaUBKTNV-1" vertex="1">
          <mxGeometry x="1065" y="458" width="30" height="30" as="geometry" />
        </mxCell>
        <mxCell id="tXaySMaBJVbL5Y9LoDkF-130" value="1" style="text;html=1;align=center;verticalAlign=middle;resizable=0;points=[];autosize=1;strokeColor=none;fillColor=none;" parent="WIyWlLk6GJQsqaUBKTNV-1" vertex="1">
          <mxGeometry x="1065" y="398" width="30" height="30" as="geometry" />
        </mxCell>
        <mxCell id="tXaySMaBJVbL5Y9LoDkF-131" style="edgeStyle=orthogonalEdgeStyle;rounded=0;orthogonalLoop=1;jettySize=auto;html=1;entryX=1.011;entryY=0.333;entryDx=0;entryDy=0;entryPerimeter=0;" parent="WIyWlLk6GJQsqaUBKTNV-1" source="tXaySMaBJVbL5Y9LoDkF-44" target="tXaySMaBJVbL5Y9LoDkF-79" edge="1">
          <mxGeometry relative="1" as="geometry" />
        </mxCell>
        <mxCell id="tXaySMaBJVbL5Y9LoDkF-132" value="Uses" style="edgeLabel;html=1;align=center;verticalAlign=middle;resizable=0;points=[];" parent="tXaySMaBJVbL5Y9LoDkF-131" vertex="1" connectable="0">
          <mxGeometry x="-0.2464" y="-1" relative="1" as="geometry">
            <mxPoint as="offset" />
          </mxGeometry>
        </mxCell>
        <mxCell id="tXaySMaBJVbL5Y9LoDkF-133" value="Use" style="endArrow=open;endSize=12;dashed=1;html=1;rounded=0;exitX=0.001;exitY=-0.195;exitDx=0;exitDy=0;exitPerimeter=0;entryX=0.446;entryY=-0.028;entryDx=0;entryDy=0;entryPerimeter=0;edgeStyle=orthogonalEdgeStyle;" parent="WIyWlLk6GJQsqaUBKTNV-1" source="tXaySMaBJVbL5Y9LoDkF-1" target="tXaySMaBJVbL5Y9LoDkF-57" edge="1">
          <mxGeometry width="160" relative="1" as="geometry">
            <mxPoint x="-162.30000000000018" y="115.50400000000013" as="sourcePoint" />
            <mxPoint x="320" y="328" as="targetPoint" />
          </mxGeometry>
        </mxCell>
        <mxCell id="tXaySMaBJVbL5Y9LoDkF-134" value="Use" style="endArrow=open;endSize=12;dashed=1;html=1;rounded=0;exitX=0.466;exitY=1.035;exitDx=0;exitDy=0;exitPerimeter=0;entryX=0.5;entryY=0;entryDx=0;entryDy=0;edgeStyle=orthogonalEdgeStyle;" parent="WIyWlLk6GJQsqaUBKTNV-1" source="tXaySMaBJVbL5Y9LoDkF-3" target="tXaySMaBJVbL5Y9LoDkF-76" edge="1">
          <mxGeometry width="160" relative="1" as="geometry">
            <mxPoint x="251" y="291" as="sourcePoint" />
            <mxPoint x="-70" y="420" as="targetPoint" />
            <Array as="points">
              <mxPoint x="165" y="210" />
              <mxPoint x="170" y="210" />
              <mxPoint x="170" y="250" />
              <mxPoint x="605" y="250" />
            </Array>
          </mxGeometry>
        </mxCell>
        <mxCell id="tXaySMaBJVbL5Y9LoDkF-135" value="Use" style="endArrow=open;endSize=12;dashed=1;html=1;rounded=0;entryX=0.5;entryY=0;entryDx=0;entryDy=0;edgeStyle=orthogonalEdgeStyle;exitX=0.193;exitY=0.988;exitDx=0;exitDy=0;exitPerimeter=0;" parent="WIyWlLk6GJQsqaUBKTNV-1" source="tXaySMaBJVbL5Y9LoDkF-3" target="tXaySMaBJVbL5Y9LoDkF-80" edge="1">
          <mxGeometry width="160" relative="1" as="geometry">
            <mxPoint x="180" y="190" as="sourcePoint" />
            <mxPoint x="468" y="450" as="targetPoint" />
            <Array as="points">
              <mxPoint x="80" y="410" />
              <mxPoint x="15" y="410" />
            </Array>
          </mxGeometry>
        </mxCell>
        <mxCell id="tXaySMaBJVbL5Y9LoDkF-136" value="" style="endArrow=block;dashed=1;endFill=0;endSize=12;html=1;rounded=0;entryX=0.422;entryY=1.009;entryDx=0;entryDy=0;entryPerimeter=0;exitX=0.478;exitY=-0.014;exitDx=0;exitDy=0;exitPerimeter=0;" parent="WIyWlLk6GJQsqaUBKTNV-1" source="tXaySMaBJVbL5Y9LoDkF-49" target="tXaySMaBJVbL5Y9LoDkF-64" edge="1">
          <mxGeometry width="160" relative="1" as="geometry">
            <mxPoint x="-654" y="588" as="sourcePoint" />
            <mxPoint x="-494" y="588" as="targetPoint" />
          </mxGeometry>
        </mxCell>
        <mxCell id="tXaySMaBJVbL5Y9LoDkF-137" value="" style="endArrow=block;dashed=1;endFill=0;endSize=12;html=1;rounded=0;entryX=0.43;entryY=1.04;entryDx=0;entryDy=0;entryPerimeter=0;exitX=0.5;exitY=0;exitDx=0;exitDy=0;" parent="WIyWlLk6GJQsqaUBKTNV-1" source="tXaySMaBJVbL5Y9LoDkF-53" target="tXaySMaBJVbL5Y9LoDkF-64" edge="1">
          <mxGeometry width="160" relative="1" as="geometry">
            <mxPoint x="-589" y="647" as="sourcePoint" />
            <mxPoint x="-472" y="558" as="targetPoint" />
          </mxGeometry>
        </mxCell>
        <mxCell id="tXaySMaBJVbL5Y9LoDkF-138" value="" style="endArrow=block;dashed=1;endFill=0;endSize=12;html=1;rounded=0;entryX=0.485;entryY=0.991;entryDx=0;entryDy=0;entryPerimeter=0;exitX=0.5;exitY=0;exitDx=0;exitDy=0;" parent="WIyWlLk6GJQsqaUBKTNV-1" source="tXaySMaBJVbL5Y9LoDkF-68" target="tXaySMaBJVbL5Y9LoDkF-67" edge="1">
          <mxGeometry width="160" relative="1" as="geometry">
            <mxPoint x="650" y="630" as="sourcePoint" />
            <mxPoint x="810" y="630" as="targetPoint" />
          </mxGeometry>
        </mxCell>
        <mxCell id="tXaySMaBJVbL5Y9LoDkF-139" value="" style="endArrow=block;dashed=1;endFill=0;endSize=12;html=1;rounded=0;entryX=0.459;entryY=1.045;entryDx=0;entryDy=0;entryPerimeter=0;exitX=0.5;exitY=0;exitDx=0;exitDy=0;" parent="WIyWlLk6GJQsqaUBKTNV-1" source="tXaySMaBJVbL5Y9LoDkF-72" target="tXaySMaBJVbL5Y9LoDkF-67" edge="1">
          <mxGeometry width="160" relative="1" as="geometry">
            <mxPoint x="650" y="630" as="sourcePoint" />
            <mxPoint x="810" y="630" as="targetPoint" />
          </mxGeometry>
        </mxCell>
        <mxCell id="i1uAJ-iN5wi2xOUiMa-Z-3" value="CloudService(Interface)" style="swimlane;fontStyle=1;align=center;verticalAlign=top;childLayout=stackLayout;horizontal=1;startSize=26;horizontalStack=0;resizeParent=1;resizeParentMax=0;resizeLast=0;collapsible=1;marginBottom=0;whiteSpace=wrap;html=1;" parent="WIyWlLk6GJQsqaUBKTNV-1" vertex="1">
          <mxGeometry x="700" y="-240" width="230" height="80" as="geometry" />
        </mxCell>
        <mxCell id="i1uAJ-iN5wi2xOUiMa-Z-5" value="" style="line;strokeWidth=1;fillColor=none;align=left;verticalAlign=middle;spacingTop=-1;spacingLeft=3;spacingRight=3;rotatable=0;labelPosition=right;points=[];portConstraint=eastwest;strokeColor=inherit;" parent="i1uAJ-iN5wi2xOUiMa-Z-3" vertex="1">
          <mxGeometry y="26" width="230" height="8" as="geometry" />
        </mxCell>
        <mxCell id="i1uAJ-iN5wi2xOUiMa-Z-6" value="&amp;nbsp;+ performOperation(operation: String)" style="text;strokeColor=none;fillColor=none;align=left;verticalAlign=top;spacingLeft=4;spacingRight=4;overflow=hidden;rotatable=0;points=[[0,0.5],[1,0.5]];portConstraint=eastwest;whiteSpace=wrap;html=1;" parent="i1uAJ-iN5wi2xOUiMa-Z-3" vertex="1">
          <mxGeometry y="34" width="230" height="46" as="geometry" />
        </mxCell>
        <mxCell id="i1uAJ-iN5wi2xOUiMa-Z-7" value="HybridCloudProxy" style="swimlane;fontStyle=1;align=center;verticalAlign=top;childLayout=stackLayout;horizontal=1;startSize=26;horizontalStack=0;resizeParent=1;resizeParentMax=0;resizeLast=0;collapsible=1;marginBottom=0;whiteSpace=wrap;html=1;" parent="WIyWlLk6GJQsqaUBKTNV-1" vertex="1">
          <mxGeometry x="545" y="-110" width="210" height="100" as="geometry" />
        </mxCell>
        <mxCell id="i1uAJ-iN5wi2xOUiMa-Z-9" value="" style="line;strokeWidth=1;fillColor=none;align=left;verticalAlign=middle;spacingTop=-1;spacingLeft=3;spacingRight=3;rotatable=0;labelPosition=right;points=[];portConstraint=eastwest;strokeColor=inherit;" parent="i1uAJ-iN5wi2xOUiMa-Z-7" vertex="1">
          <mxGeometry y="26" width="210" height="14" as="geometry" />
        </mxCell>
        <mxCell id="i1uAJ-iN5wi2xOUiMa-Z-10" value="&lt;div&gt;&lt;font style=&quot;font-size: 10px;&quot;&gt;- realCloudService: RealCloudService&lt;/font&gt;&lt;/div&gt;&lt;div&gt;&lt;font style=&quot;font-size: 10px;&quot;&gt;+ performOperation(operation: String)&lt;/font&gt;&lt;/div&gt;&lt;div&gt;&lt;/div&gt;" style="text;strokeColor=none;fillColor=none;align=left;verticalAlign=top;spacingLeft=4;spacingRight=4;overflow=hidden;rotatable=0;points=[[0,0.5],[1,0.5]];portConstraint=eastwest;whiteSpace=wrap;html=1;" parent="i1uAJ-iN5wi2xOUiMa-Z-7" vertex="1">
          <mxGeometry y="40" width="210" height="60" as="geometry" />
        </mxCell>
        <mxCell id="i1uAJ-iN5wi2xOUiMa-Z-11" value="RealCloudService" style="swimlane;fontStyle=1;align=center;verticalAlign=top;childLayout=stackLayout;horizontal=1;startSize=26;horizontalStack=0;resizeParent=1;resizeParentMax=0;resizeLast=0;collapsible=1;marginBottom=0;whiteSpace=wrap;html=1;" parent="WIyWlLk6GJQsqaUBKTNV-1" vertex="1">
          <mxGeometry x="865" y="-110" width="230" height="100" as="geometry" />
        </mxCell>
        <mxCell id="i1uAJ-iN5wi2xOUiMa-Z-13" value="" style="line;strokeWidth=1;fillColor=none;align=left;verticalAlign=middle;spacingTop=-1;spacingLeft=3;spacingRight=3;rotatable=0;labelPosition=right;points=[];portConstraint=eastwest;strokeColor=inherit;" parent="i1uAJ-iN5wi2xOUiMa-Z-11" vertex="1">
          <mxGeometry y="26" width="230" height="24" as="geometry" />
        </mxCell>
        <mxCell id="i1uAJ-iN5wi2xOUiMa-Z-14" value="+ performOperation(operation: String)&lt;div&gt;&lt;/div&gt;" style="text;strokeColor=none;fillColor=none;align=left;verticalAlign=top;spacingLeft=4;spacingRight=4;overflow=hidden;rotatable=0;points=[[0,0.5],[1,0.5]];portConstraint=eastwest;whiteSpace=wrap;html=1;" parent="i1uAJ-iN5wi2xOUiMa-Z-11" vertex="1">
          <mxGeometry y="50" width="230" height="50" as="geometry" />
        </mxCell>
        <mxCell id="i1uAJ-iN5wi2xOUiMa-Z-15" value="AnalyticsStrategy" style="swimlane;fontStyle=1;align=center;verticalAlign=top;childLayout=stackLayout;horizontal=1;startSize=26;horizontalStack=0;resizeParent=1;resizeParentMax=0;resizeLast=0;collapsible=1;marginBottom=0;whiteSpace=wrap;html=1;" parent="WIyWlLk6GJQsqaUBKTNV-1" vertex="1">
          <mxGeometry x="-250" y="-240" width="160" height="60" as="geometry" />
        </mxCell>
        <mxCell id="i1uAJ-iN5wi2xOUiMa-Z-17" value="" style="line;strokeWidth=1;fillColor=none;align=left;verticalAlign=middle;spacingTop=-1;spacingLeft=3;spacingRight=3;rotatable=0;labelPosition=right;points=[];portConstraint=eastwest;strokeColor=inherit;" parent="i1uAJ-iN5wi2xOUiMa-Z-15" vertex="1">
          <mxGeometry y="26" width="160" height="8" as="geometry" />
        </mxCell>
        <mxCell id="i1uAJ-iN5wi2xOUiMa-Z-18" value="+analyze()" style="text;strokeColor=none;fillColor=none;align=left;verticalAlign=top;spacingLeft=4;spacingRight=4;overflow=hidden;rotatable=0;points=[[0,0.5],[1,0.5]];portConstraint=eastwest;whiteSpace=wrap;html=1;" parent="i1uAJ-iN5wi2xOUiMa-Z-15" vertex="1">
          <mxGeometry y="34" width="160" height="26" as="geometry" />
        </mxCell>
        <mxCell id="i1uAJ-iN5wi2xOUiMa-Z-19" value="EnergyAnalytics" style="swimlane;fontStyle=1;align=center;verticalAlign=top;childLayout=stackLayout;horizontal=1;startSize=26;horizontalStack=0;resizeParent=1;resizeParentMax=0;resizeLast=0;collapsible=1;marginBottom=0;whiteSpace=wrap;html=1;" parent="WIyWlLk6GJQsqaUBKTNV-1" vertex="1">
          <mxGeometry x="-510" y="-270" width="160" height="60" as="geometry" />
        </mxCell>
        <mxCell id="i1uAJ-iN5wi2xOUiMa-Z-21" value="" style="line;strokeWidth=1;fillColor=none;align=left;verticalAlign=middle;spacingTop=-1;spacingLeft=3;spacingRight=3;rotatable=0;labelPosition=right;points=[];portConstraint=eastwest;strokeColor=inherit;" parent="i1uAJ-iN5wi2xOUiMa-Z-19" vertex="1">
          <mxGeometry y="26" width="160" height="8" as="geometry" />
        </mxCell>
        <mxCell id="i1uAJ-iN5wi2xOUiMa-Z-22" value="+analyze()" style="text;strokeColor=none;fillColor=none;align=left;verticalAlign=top;spacingLeft=4;spacingRight=4;overflow=hidden;rotatable=0;points=[[0,0.5],[1,0.5]];portConstraint=eastwest;whiteSpace=wrap;html=1;" parent="i1uAJ-iN5wi2xOUiMa-Z-19" vertex="1">
          <mxGeometry y="34" width="160" height="26" as="geometry" />
        </mxCell>
        <mxCell id="i1uAJ-iN5wi2xOUiMa-Z-23" value="TrafficAnalytics" style="swimlane;fontStyle=1;align=center;verticalAlign=top;childLayout=stackLayout;horizontal=1;startSize=26;horizontalStack=0;resizeParent=1;resizeParentMax=0;resizeLast=0;collapsible=1;marginBottom=0;whiteSpace=wrap;html=1;" parent="WIyWlLk6GJQsqaUBKTNV-1" vertex="1">
          <mxGeometry x="40" y="-270" width="160" height="60" as="geometry" />
        </mxCell>
        <mxCell id="i1uAJ-iN5wi2xOUiMa-Z-25" value="" style="line;strokeWidth=1;fillColor=none;align=left;verticalAlign=middle;spacingTop=-1;spacingLeft=3;spacingRight=3;rotatable=0;labelPosition=right;points=[];portConstraint=eastwest;strokeColor=inherit;" parent="i1uAJ-iN5wi2xOUiMa-Z-23" vertex="1">
          <mxGeometry y="26" width="160" height="8" as="geometry" />
        </mxCell>
        <mxCell id="i1uAJ-iN5wi2xOUiMa-Z-26" value="+analyze()" style="text;strokeColor=none;fillColor=none;align=left;verticalAlign=top;spacingLeft=4;spacingRight=4;overflow=hidden;rotatable=0;points=[[0,0.5],[1,0.5]];portConstraint=eastwest;whiteSpace=wrap;html=1;" parent="i1uAJ-iN5wi2xOUiMa-Z-23" vertex="1">
          <mxGeometry y="34" width="160" height="26" as="geometry" />
        </mxCell>
        <mxCell id="i1uAJ-iN5wi2xOUiMa-Z-30" value="" style="endArrow=block;dashed=1;endFill=0;endSize=12;html=1;rounded=0;exitX=0.468;exitY=1.05;exitDx=0;exitDy=0;exitPerimeter=0;entryX=0.5;entryY=0;entryDx=0;entryDy=0;" parent="WIyWlLk6GJQsqaUBKTNV-1" source="i1uAJ-iN5wi2xOUiMa-Z-6" target="i1uAJ-iN5wi2xOUiMa-Z-7" edge="1">
          <mxGeometry width="160" relative="1" as="geometry">
            <mxPoint x="675" y="230" as="sourcePoint" />
            <mxPoint x="835" y="230" as="targetPoint" />
          </mxGeometry>
        </mxCell>
        <mxCell id="i1uAJ-iN5wi2xOUiMa-Z-31" value="" style="endArrow=block;dashed=1;endFill=0;endSize=12;html=1;rounded=0;exitX=0.482;exitY=0.964;exitDx=0;exitDy=0;exitPerimeter=0;entryX=0.5;entryY=0;entryDx=0;entryDy=0;" parent="WIyWlLk6GJQsqaUBKTNV-1" source="i1uAJ-iN5wi2xOUiMa-Z-6" target="i1uAJ-iN5wi2xOUiMa-Z-11" edge="1">
          <mxGeometry width="160" relative="1" as="geometry">
            <mxPoint x="804" y="-139" as="sourcePoint" />
            <mxPoint x="675" y="-102" as="targetPoint" />
          </mxGeometry>
        </mxCell>
        <mxCell id="i1uAJ-iN5wi2xOUiMa-Z-32" value="1" style="endArrow=open;html=1;endSize=12;startArrow=diamondThin;startSize=14;startFill=0;edgeStyle=orthogonalEdgeStyle;align=left;verticalAlign=bottom;rounded=0;exitX=1.011;exitY=0.287;exitDx=0;exitDy=0;exitPerimeter=0;entryX=0.001;entryY=0.147;entryDx=0;entryDy=0;entryPerimeter=0;" parent="WIyWlLk6GJQsqaUBKTNV-1" source="i1uAJ-iN5wi2xOUiMa-Z-10" target="i1uAJ-iN5wi2xOUiMa-Z-14" edge="1">
          <mxGeometry x="-1" y="3" relative="1" as="geometry">
            <mxPoint x="735" y="-50" as="sourcePoint" />
            <mxPoint x="835" y="-50" as="targetPoint" />
            <Array as="points">
              <mxPoint x="842" y="-53" />
            </Array>
          </mxGeometry>
        </mxCell>
        <mxCell id="i1uAJ-iN5wi2xOUiMa-Z-33" style="edgeStyle=orthogonalEdgeStyle;rounded=0;orthogonalLoop=1;jettySize=auto;html=1;" parent="WIyWlLk6GJQsqaUBKTNV-1" source="tXaySMaBJVbL5Y9LoDkF-3" target="i1uAJ-iN5wi2xOUiMa-Z-10" edge="1">
          <mxGeometry relative="1" as="geometry">
            <mxPoint x="450" y="-50" as="targetPoint" />
            <Array as="points">
              <mxPoint x="450" y="150" />
            </Array>
          </mxGeometry>
        </mxCell>
        <mxCell id="i1uAJ-iN5wi2xOUiMa-Z-34" value="" style="endArrow=block;dashed=1;endFill=0;endSize=12;html=1;rounded=0;exitX=0.732;exitY=1.061;exitDx=0;exitDy=0;exitPerimeter=0;entryX=0;entryY=0.25;entryDx=0;entryDy=0;edgeStyle=orthogonalEdgeStyle;" parent="WIyWlLk6GJQsqaUBKTNV-1" source="i1uAJ-iN5wi2xOUiMa-Z-18" target="i1uAJ-iN5wi2xOUiMa-Z-23" edge="1">
          <mxGeometry width="160" relative="1" as="geometry">
            <mxPoint x="-150" y="10" as="sourcePoint" />
            <mxPoint x="-14" y="81" as="targetPoint" />
            <Array as="points">
              <mxPoint x="-133" y="-140" />
              <mxPoint x="-25" y="-140" />
              <mxPoint x="-25" y="-255" />
            </Array>
          </mxGeometry>
        </mxCell>
        <mxCell id="i1uAJ-iN5wi2xOUiMa-Z-35" value="" style="endArrow=block;dashed=1;endFill=0;endSize=12;html=1;rounded=0;exitX=0.279;exitY=1.157;exitDx=0;exitDy=0;exitPerimeter=0;entryX=1;entryY=0.25;entryDx=0;entryDy=0;edgeStyle=orthogonalEdgeStyle;" parent="WIyWlLk6GJQsqaUBKTNV-1" source="i1uAJ-iN5wi2xOUiMa-Z-18" target="i1uAJ-iN5wi2xOUiMa-Z-19" edge="1">
          <mxGeometry width="160" relative="1" as="geometry">
            <mxPoint x="-280" y="80" as="sourcePoint" />
            <mxPoint x="-153" y="149" as="targetPoint" />
            <Array as="points">
              <mxPoint x="-205" y="-140" />
              <mxPoint x="-285" y="-140" />
              <mxPoint x="-285" y="-250" />
              <mxPoint x="-330" y="-250" />
              <mxPoint x="-330" y="-255" />
            </Array>
          </mxGeometry>
        </mxCell>
        <mxCell id="i1uAJ-iN5wi2xOUiMa-Z-36" value="1" style="endArrow=open;html=1;endSize=12;startArrow=diamondThin;startSize=14;startFill=0;edgeStyle=orthogonalEdgeStyle;align=left;verticalAlign=bottom;rounded=0;entryX=0.508;entryY=1.077;entryDx=0;entryDy=0;entryPerimeter=0;" parent="WIyWlLk6GJQsqaUBKTNV-1" source="tXaySMaBJVbL5Y9LoDkF-0" target="i1uAJ-iN5wi2xOUiMa-Z-18" edge="1">
          <mxGeometry x="-0.9233" y="-5" relative="1" as="geometry">
            <mxPoint x="-190" y="-19" as="sourcePoint" />
            <mxPoint x="-170" y="-170" as="targetPoint" />
            <Array as="points">
              <mxPoint x="175" y="-70" />
              <mxPoint x="-169" y="-70" />
            </Array>
            <mxPoint as="offset" />
          </mxGeometry>
        </mxCell>
        <mxCell id="i1uAJ-iN5wi2xOUiMa-Z-37" value="AdminDashboard" style="swimlane;fontStyle=1;align=center;verticalAlign=top;childLayout=stackLayout;horizontal=1;startSize=26;horizontalStack=0;resizeParent=1;resizeParentMax=0;resizeLast=0;collapsible=1;marginBottom=0;whiteSpace=wrap;html=1;" parent="WIyWlLk6GJQsqaUBKTNV-1" vertex="1">
          <mxGeometry x="-340" y="100" width="190" height="100" as="geometry" />
        </mxCell>
        <mxCell id="i1uAJ-iN5wi2xOUiMa-Z-38" value="" style="line;strokeWidth=1;fillColor=none;align=left;verticalAlign=middle;spacingTop=-1;spacingLeft=3;spacingRight=3;rotatable=0;labelPosition=right;points=[];portConstraint=eastwest;strokeColor=inherit;" parent="i1uAJ-iN5wi2xOUiMa-Z-37" vertex="1">
          <mxGeometry y="26" width="190" height="8" as="geometry" />
        </mxCell>
        <mxCell id="i1uAJ-iN5wi2xOUiMa-Z-39" value="&lt;div&gt;&amp;nbsp; &amp;nbsp; + viewAnalytics()&lt;/div&gt;&lt;div&gt;&amp;nbsp; &amp;nbsp; + manageCityInfrastructure()&lt;/div&gt;" style="text;strokeColor=none;fillColor=none;align=left;verticalAlign=top;spacingLeft=4;spacingRight=4;overflow=hidden;rotatable=0;points=[[0,0.5],[1,0.5]];portConstraint=eastwest;whiteSpace=wrap;html=1;" parent="i1uAJ-iN5wi2xOUiMa-Z-37" vertex="1">
          <mxGeometry y="34" width="190" height="66" as="geometry" />
        </mxCell>
        <mxCell id="i1uAJ-iN5wi2xOUiMa-Z-40" value="ResidentPortal" style="swimlane;fontStyle=1;align=center;verticalAlign=top;childLayout=stackLayout;horizontal=1;startSize=26;horizontalStack=0;resizeParent=1;resizeParentMax=0;resizeLast=0;collapsible=1;marginBottom=0;whiteSpace=wrap;html=1;" parent="WIyWlLk6GJQsqaUBKTNV-1" vertex="1">
          <mxGeometry x="-230" y="284" width="190" height="100" as="geometry" />
        </mxCell>
        <mxCell id="i1uAJ-iN5wi2xOUiMa-Z-41" value="" style="line;strokeWidth=1;fillColor=none;align=left;verticalAlign=middle;spacingTop=-1;spacingLeft=3;spacingRight=3;rotatable=0;labelPosition=right;points=[];portConstraint=eastwest;strokeColor=inherit;" parent="i1uAJ-iN5wi2xOUiMa-Z-40" vertex="1">
          <mxGeometry y="26" width="190" height="8" as="geometry" />
        </mxCell>
        <mxCell id="i1uAJ-iN5wi2xOUiMa-Z-42" value="&lt;div&gt;&amp;nbsp;+ manageDevices()&lt;/div&gt;&lt;div&gt;&amp;nbsp;+ viewUtilityData()&lt;/div&gt;&lt;div&gt;&amp;nbsp;+ makePayment()&lt;/div&gt;" style="text;strokeColor=none;fillColor=none;align=left;verticalAlign=top;spacingLeft=4;spacingRight=4;overflow=hidden;rotatable=0;points=[[0,0.5],[1,0.5]];portConstraint=eastwest;whiteSpace=wrap;html=1;" parent="i1uAJ-iN5wi2xOUiMa-Z-40" vertex="1">
          <mxGeometry y="34" width="190" height="66" as="geometry" />
        </mxCell>
        <mxCell id="i1uAJ-iN5wi2xOUiMa-Z-43" value="SecurityManager" style="swimlane;fontStyle=1;align=center;verticalAlign=top;childLayout=stackLayout;horizontal=1;startSize=26;horizontalStack=0;resizeParent=1;resizeParentMax=0;resizeLast=0;collapsible=1;marginBottom=0;whiteSpace=wrap;html=1;" parent="WIyWlLk6GJQsqaUBKTNV-1" vertex="1">
          <mxGeometry x="90" y="470" width="260" height="90" as="geometry" />
        </mxCell>
        <mxCell id="i1uAJ-iN5wi2xOUiMa-Z-44" value="" style="line;strokeWidth=1;fillColor=none;align=left;verticalAlign=middle;spacingTop=-1;spacingLeft=3;spacingRight=3;rotatable=0;labelPosition=right;points=[];portConstraint=eastwest;strokeColor=inherit;" parent="i1uAJ-iN5wi2xOUiMa-Z-43" vertex="1">
          <mxGeometry y="26" width="260" height="8" as="geometry" />
        </mxCell>
        <mxCell id="i1uAJ-iN5wi2xOUiMa-Z-45" value="&lt;div&gt;+ authenticate(user: String, method: String)&lt;/div&gt;&lt;div&gt;&amp;nbsp;+ encrypt(data: String): String&lt;/div&gt;" style="text;strokeColor=none;fillColor=none;align=left;verticalAlign=top;spacingLeft=4;spacingRight=4;overflow=hidden;rotatable=0;points=[[0,0.5],[1,0.5]];portConstraint=eastwest;whiteSpace=wrap;html=1;" parent="i1uAJ-iN5wi2xOUiMa-Z-43" vertex="1">
          <mxGeometry y="34" width="260" height="56" as="geometry" />
        </mxCell>
        <mxCell id="i1uAJ-iN5wi2xOUiMa-Z-49" value="" style="endArrow=open;endFill=1;endSize=12;html=1;rounded=0;entryX=0.25;entryY=0;entryDx=0;entryDy=0;exitX=0.317;exitY=1.056;exitDx=0;exitDy=0;exitPerimeter=0;" parent="WIyWlLk6GJQsqaUBKTNV-1" source="i1uAJ-iN5wi2xOUiMa-Z-42" target="tXaySMaBJVbL5Y9LoDkF-36" edge="1">
          <mxGeometry width="160" relative="1" as="geometry">
            <mxPoint x="-120" y="390" as="sourcePoint" />
            <mxPoint x="-30" y="517.23" as="targetPoint" />
          </mxGeometry>
        </mxCell>
        <mxCell id="i1uAJ-iN5wi2xOUiMa-Z-54" value="" style="endArrow=open;endFill=1;endSize=12;html=1;rounded=0;exitX=-0.009;exitY=0.108;exitDx=0;exitDy=0;entryX=0.75;entryY=0;entryDx=0;entryDy=0;edgeStyle=orthogonalEdgeStyle;exitPerimeter=0;" parent="WIyWlLk6GJQsqaUBKTNV-1" source="tXaySMaBJVbL5Y9LoDkF-0" target="i1uAJ-iN5wi2xOUiMa-Z-37" edge="1">
          <mxGeometry width="160" relative="1" as="geometry">
            <mxPoint x="20" y="30" as="sourcePoint" />
            <mxPoint x="180" y="30" as="targetPoint" />
          </mxGeometry>
        </mxCell>
        <mxCell id="i1uAJ-iN5wi2xOUiMa-Z-55" value="" style="endArrow=open;endFill=1;endSize=12;html=1;rounded=0;exitX=0.356;exitY=-0.004;exitDx=0;exitDy=0;edgeStyle=orthogonalEdgeStyle;exitPerimeter=0;" parent="WIyWlLk6GJQsqaUBKTNV-1" source="tXaySMaBJVbL5Y9LoDkF-0" edge="1">
          <mxGeometry width="160" relative="1" as="geometry">
            <mxPoint x="108" y="10" as="sourcePoint" />
            <mxPoint x="-90" y="280" as="targetPoint" />
            <Array as="points">
              <mxPoint x="130" y="-30" />
              <mxPoint x="-90" y="-30" />
            </Array>
          </mxGeometry>
        </mxCell>
        <mxCell id="i1uAJ-iN5wi2xOUiMa-Z-56" value="" style="endArrow=open;endFill=1;endSize=12;html=1;rounded=0;exitX=0.5;exitY=0;exitDx=0;exitDy=0;entryX=1.005;entryY=0.185;entryDx=0;entryDy=0;entryPerimeter=0;edgeStyle=orthogonalEdgeStyle;" parent="WIyWlLk6GJQsqaUBKTNV-1" source="i1uAJ-iN5wi2xOUiMa-Z-43" target="i1uAJ-iN5wi2xOUiMa-Z-40" edge="1">
          <mxGeometry width="160" relative="1" as="geometry">
            <mxPoint x="60" y="340" as="sourcePoint" />
            <mxPoint x="220" y="340" as="targetPoint" />
          </mxGeometry>
        </mxCell>
        <mxCell id="i1uAJ-iN5wi2xOUiMa-Z-58" value="" style="endArrow=open;endFill=1;endSize=12;html=1;rounded=0;exitX=0.602;exitY=0.012;exitDx=0;exitDy=0;entryX=1.011;entryY=0.103;entryDx=0;entryDy=0;entryPerimeter=0;edgeStyle=orthogonalEdgeStyle;elbow=vertical;exitPerimeter=0;" parent="WIyWlLk6GJQsqaUBKTNV-1" source="i1uAJ-iN5wi2xOUiMa-Z-43" target="i1uAJ-iN5wi2xOUiMa-Z-37" edge="1">
          <mxGeometry width="160" relative="1" as="geometry">
            <mxPoint x="333.07" y="478" as="sourcePoint" />
            <mxPoint x="-23.069999999999865" y="124.8999999999999" as="targetPoint" />
            <Array as="points">
              <mxPoint x="246" y="461" />
              <mxPoint x="246" y="270" />
              <mxPoint x="-20" y="270" />
              <mxPoint x="-20" y="110" />
            </Array>
          </mxGeometry>
        </mxCell>
        <mxCell id="i1uAJ-iN5wi2xOUiMa-Z-59" value="" style="endArrow=open;endFill=1;endSize=12;html=1;rounded=0;elbow=vertical;entryX=0.707;entryY=0.992;entryDx=0;entryDy=0;entryPerimeter=0;edgeStyle=orthogonalEdgeStyle;exitX=0.768;exitY=0.025;exitDx=0;exitDy=0;exitPerimeter=0;" parent="WIyWlLk6GJQsqaUBKTNV-1" source="i1uAJ-iN5wi2xOUiMa-Z-43" target="i1uAJ-iN5wi2xOUiMa-Z-10" edge="1">
          <mxGeometry width="160" relative="1" as="geometry">
            <mxPoint x="330" y="400" as="sourcePoint" />
            <mxPoint x="310" y="230" as="targetPoint" />
            <Array as="points">
              <mxPoint x="290" y="230" />
              <mxPoint x="498" y="230" />
              <mxPoint x="498" y="50" />
              <mxPoint x="694" y="50" />
            </Array>
          </mxGeometry>
        </mxCell>
      </root>
    </mxGraphModel>
  </diagram>
</mxfile>
